<svg height="512pt" viewBox="-62 0 512 512.00007" width="512pt" xmlns="http://www.w3.org/2000/svg"><path d="m216.433594 45.4375c0 15.820312-12.824219 28.644531-28.640625 28.644531-15.820313 0-28.644531-12.824219-28.644531-28.644531 0-15.816406 12.824218-28.640625 28.644531-28.640625 15.816406 0 28.640625 12.824219 28.640625 28.640625zm0 0" fill="#e55045"/><path d="m187.792969 16.796875c-4.433594 0-8.628907 1.007813-12.375 2.804687 9.621093 4.617188 16.265625 14.449219 16.265625 25.835938s-6.644532 21.222656-16.265625 25.839844c3.746093 1.796875 7.941406 2.804687 12.375 2.804687 15.816406 0 28.640625-12.824219 28.640625-28.644531 0-15.816406-12.824219-28.640625-28.640625-28.640625zm0 0" fill="#c43730"/><path d="m52.152344 264.6875c.265625-9.894531 9.945312-23.871094 19.144531-35.707031 18.601563-23.925781 54.550781-23.65625 74.644531-24.402344 36.800782-1.363281 89.273438-8.675781 158.265625-35.167969 4.765625 1.894532 27.355469 11.445313 36.605469 35.527344 1.003906 2.617188 9.367188 25.203125.171875 41.390625-14.996094 26.398437-66.507813 17.820313-160.589844 16.207031-49.695312-.851562-98.796875.589844-128.242187 2.152344zm0 0" fill="#ff71bf"/><path d="m52.300781 262.878906c-.078125.617188-.132812 1.222656-.148437 1.808594 18.292968-.972656 44.171875-1.894531 73.066406-2.25-25.558594-.335938-50.734375-.089844-72.917969.441406zm0 0" fill="#f75c9b"/><path d="m340.8125 204.9375c-9.25-24.082031-31.835938-33.632812-36.605469-35.53125-10.457031 4.019531-20.53125 7.585938-30.234375 10.769531 6.902344 5.601563 14.03125 13.625 18.308594 24.761719 1.007812 2.617188 9.367188 25.203125.175781 41.386719-6.816406 12-21.179687 16.773437-43.648437 18.257812 51.359375 1.632813 81.328125.84375 92.175781-18.257812 9.195313-16.183594.832031-38.769531-.171875-41.386719zm0 0" fill="#f75c9b"/><path d="m79.558594 180.558594c-4.015625-5.089844-11.039063-15.574219-11.710938-29.714844-.949218-20.007812 11.453125-34.625 15.652344-39.574219 33.355469-39.3125 86.957031-15.433593 120.042969-50.0625 7.820312-8.183593 16.664062-21.90625 19.585937-46.046875.710938-5.886718 6.988282-9.300781 12.402344-6.882812 10.964844 4.898437 26.546875 14.707031 34.582031 33.015625 8.210938 18.707031 4.070313 36.097656 1.257813 47.90625-1.742188 7.320312-9.011719 34.015625-33.515625 53.011719-5.296875 4.105468-9.730469 6.558593-34.3125 16.429687-70.058594 28.132813-89.808594 30.722656-109.277344 26.378906-6.3125-1.410156-11.375-3.171875-14.707031-4.460937zm0 0" fill="#ff71bf"/><path d="m270.113281 41.292969c-8.035156-18.308594-23.621093-28.117188-34.582031-33.015625-5.414062-2.417969-11.6875.996094-12.402344 6.882812-1.347656 11.128906-3.953125 20.039063-7.136718 27.214844 7.585937 18.292969 3.558593 35.246094.800781 46.824219-1.742188 7.320312-9.011719 34.015625-33.515625 53.011719-5.292969 4.105468-9.730469 6.558593-34.3125 16.429687-29.503906 11.847656-50.085938 19.164063-65.480469 23.339844 2.953125 1.007812 6.582031 2.101562 10.78125 3.039062 19.46875 4.34375 39.21875 1.753907 109.277344-26.378906 24.582031-9.871094 29.019531-12.328125 34.3125-16.429687 24.5-18.996094 31.773437-45.691407 33.515625-53.011719 2.8125-11.808594 6.953125-29.199219-1.257813-47.90625zm0 0" fill="#f75c9b"/><path d="m53.894531 259.84375c-4.902343-5.34375-16.980469-19.980469-14.90625-37.824219.53125-4.558593 2.621094-14.761719 14.523438-26.476562 35.453125-34.890625 96.539062-22.675781 153.738281-51.113281 16.785156-8.34375 40.699219-23.902344 64.117188-55.230469 4.246093 1.621093 10.125 4.457031 16.347656 9.132812 7.460937 5.605469 15.574218 14.089844 20.257812 26.394531.75 1.96875 8.59375 23.324219.175782 41.390626-17.304688 37.148437-95.414063 43.429687-160.808594 48.691406-25.929688 2.085937-62.320313 3.519531-83.9375 29.601562-4.804688 5.804688-7.746094 11.449219-9.507813 15.433594zm0 0" fill="#ffd2ef"/><path d="m307.976562 124.730469c-4.683593-12.308594-12.800781-20.792969-20.261718-26.398438-6.21875-4.671875-12.101563-7.507812-16.34375-9.132812-6.257813 8.371093-12.550782 15.605469-18.730469 21.886719 2.902344 3.914062 5.503906 8.433593 7.488281 13.644531.75 1.964843 8.59375 23.320312.175782 41.386719-17.304688 37.148437-95.417969 43.433593-160.808594 48.691406-18.019532 1.449218-41.082032 2.59375-60.734375 11.902344.253906 15.6875 10.667969 28.265624 15.132812 33.132812 1.761719-3.984375 4.703125-9.628906 9.507813-15.433594 21.617187-26.082031 58.007812-27.515625 83.9375-29.601562 65.390625-5.257813 143.503906-11.542969 160.808594-48.691406 8.417968-18.066407.574218-39.421876-.171876-41.386719zm0 0" fill="#ffb9ef"/><path d="m367.988281 327.078125h-347.09375v-45.964844c0-12.878906 10.441407-23.316406 23.320313-23.316406h300.457031c12.878906 0 23.316406 10.4375 23.316406 23.316406zm0 0" fill="#876954"/><path d="m344.671875 257.796875h-55.847656c12.882812 0 23.320312 10.4375 23.320312 23.316406v45.964844h55.84375v-45.964844c0-12.878906-10.4375-23.316406-23.316406-23.316406zm0 0" fill="#705245"/><path d="m381.328125 287.617188-29.3125 187.355468c-2.648437 17-17.285156 29.523438-34.492187 29.523438h-246.140626c-17.199218 0-31.832031-12.523438-34.496093-29.523438l-29.332031-187.355468c-.519532-3.339844 2.632812-6.113282 5.875-5.152344 12.34375 3.660156 14.726562 16.867187 30.890624 16.867187 18.757813 0 18.757813-17.785156 37.527344-17.785156 18.757813 0 18.757813 17.785156 37.515625 17.785156 18.765625 0 18.765625-17.785156 37.523438-17.785156 18.769531 0 18.769531 17.785156 37.523437 17.785156 18.769532 0 18.769532-17.785156 37.527344-17.785156 18.765625 0 18.765625 17.785156 37.535156 17.785156 18.757813 0 18.757813-17.785156 37.523438-17.785156 18.769531 0 18.769531 17.785156 37.535156 17.785156 16.167969 0 18.558594-13.203125 30.921875-16.867187 3.242187-.960938 6.394531 1.808594 5.875 5.152344zm0 0" fill="#ffe170"/><path d="m384.742188 277.777344c-2.742188-2.398438-6.339844-3.417969-9.871094-2.851563-2.703125-13.214843-13.890625-23.363281-27.597656-24.515625.074218-.128906.160156-.246094.234374-.375 10.625-18.710937 2.117188-43.105468.308594-47.792968-7.230468-18.816407-21.726562-29.804688-31.796875-35.46875 7.6875-19.503907.550781-40.53125-1.03125-44.71875-4.46875-11.722657-12.128906-21.722657-22.769531-29.722657-4.355469-3.273437-8.542969-5.707031-12.144531-7.488281 2.652343-12.273438 4.75-28.710938-3.089844-46.574219-8.886719-20.242187-25.785156-31.210937-38.402344-36.851562-4.75-2.117188-10.285156-1.851563-14.804687.710937-4.519532 2.566406-7.472656 6.988282-8.089844 12.132813-.292969 2.386719-.652344 4.710937-1.078125 6.96875-6.652344-7.359375-16.261719-11.9375-26.820313-11.9375-19.929687 0-36.144531 16.214843-36.144531 36.144531 0 11.117188 5.085938 21.144531 13.09375 27.804688-6.363281 1.4375-13.019531 2.4375-19.867187 3.464843-23.589844 3.535157-47.984375 7.191407-67.105469 29.722657-4.574219 5.394531-18.5 21.816406-17.410156 44.761718.402343 8.515625 2.882812 16.988282 7.246093 24.902344-7.363281 3.933594-13.742187 8.585938-19.347656 14.097656-9.691406 9.535156-15.472656 20.242188-16.71875 30.960938-1.316406 11.335937 1.96875 21.484375 6.585938 29.746094-12.085938 2.433593-21.636719 11.953124-24.105469 24.027343-3.53125-.566406-7.125.453125-9.871094 2.851563-3.148437 2.757812-4.640625 6.871094-3.996093 11.003906l29.332031 187.355469c3.246093 20.78125 20.871093 35.863281 41.902343 35.863281h19.472657.007812.011719 207.160156.011719.007813 19.472656c21.03125 0 38.65625-15.082031 41.902344-35.863281l29.304687-187.359375c.648437-4.128906-.84375-8.242188-3.992187-11zm-196.953126-253.476563c9.988282 0 18.535157 6.992188 20.632813 16.558594-2.730469 5.785156-6.113281 10.765625-10.300781 15.160156-3.984375 4.167969-8.46875 7.542969-13.648438 10.285157-10.132812-1.589844-17.824218-10.410157-17.824218-20.867188.003906-11.65625 9.484374-21.136719 21.140624-21.136719zm-141.347656 198.585938c.84375-7.285157 5.109375-14.890625 12.332032-21.996094 6.175781-6.074219 13.59375-10.917969 22.671874-14.8125 7.789063-3.332031 17.023438-6.066406 29.0625-8.601563 4.054688-.855468 6.652344-4.832031 5.796876-8.886718-.855469-4.058594-4.839844-6.652344-8.886719-5.796875-10.226563 2.152343-18.660157 4.476562-26.035157 7.179687-2.964843-5.066406-5.671874-11.71875-6.039062-19.488281-.808594-17.042969 9.851562-29.617187 13.875-34.355469 15.464844-18.226562 36.066406-21.3125 57.875-24.582031 14.027344-2.101563 28.53125-4.277344 41.828125-10.675781.082031-.035156.160156-.074219.238281-.109375.03125-.015625.058594-.03125.085938-.042969.042968-.023438.085937-.042969.128906-.066406 7.523438-3.679688 13.9375-8.34375 19.601562-14.269532 5.820313-6.109374 10.566407-13.34375 14.101563-21.5.027344-.0625.054687-.132812.082031-.195312.011719-.03125.023438-.058594.035156-.089844 3.617188-8.382812 6.105469-17.976562 7.386719-28.535156.019531-.144531.070313-.582031.597657-.882812.230468-.132813.714843-.3125 1.285156-.058594 10.199218 4.558594 23.816406 13.320312 30.777344 29.179687 6.875 15.664063 3.828124 30.464844 1.199218 41.601563-17.53125 23.113281-37.886718 40.546875-60.535156 51.804687-20.210938 10.050781-40.933594 14.792969-60.316406 18.417969-4.074219.761719-6.761719 4.683594-5.996094 8.753906.761719 4.074219 4.683594 6.757813 8.753906 5.996094 20.449219-3.824219 42.382813-8.863281 64.238282-19.730469 23.585937-11.722656 44.804687-29.4375 63.144531-52.703125 2.816406 1.414063 6.074219 3.328125 9.46875 5.882813 8.34375 6.273437 14.320312 14.039062 17.757812 23.054687.777344 2.058594 7.390625 20.535156.386719 35.578125-.503906 1.078125-1.089844 2.160157-1.746094 3.214844-18.933594 30.386719-93.191406 36.359375-152.859375 41.15625-1.390625.109375-2.816406.222656-4.265625.332031-26.320312 2.042969-62.371094 4.839844-84.871094 31.984375-.167968.203125-.335937.410157-.496093.613281-1.539063 1.90625-2.960938 3.902344-4.300781 5.953126-4.128907-6.453126-7.382813-14.546876-6.363282-23.324219zm-2.230468 42.410156h10.59375c.011718 0 .023437.003906.035156.003906.011718 0 .019531-.003906.027344-.003906h203.960937c4.144531 0 7.5-3.359375 7.5-7.5 0-4.144531-3.355469-7.503906-7.5-7.503906h-190.503906c.167969-.214844.324219-.4375.492187-.648438.039063-.050781.078125-.097656.117188-.144531.082031-.109375.171875-.21875.242187-.300781 18.421875-22.226563 49.492188-24.636719 74.457031-26.574219 1.464844-.113281 2.90625-.226562 4.308594-.339844 62.832032-5.050781 133.59375-10.746094 160.355469-42.640625 8.039063 4.4375 19.800781 13.128907 25.515625 27.988281 3.082031 7.992188 6.6875 24.351563.644531 34.996094-1.78125 3.136719-4.335937 5.65625-7.78125 7.664063h-34.214843c-4.144532 0-7.503907 3.359375-7.503907 7.503906 0 4.140625 3.359375 7.5 7.503907 7.5h36.101562c.007812 0 .011719.003906.019531.003906.011719 0 .019531-.003906.027344-.003906h16.0625c8.722656 0 15.816406 7.097656 15.816406 15.816406v1.796875c-.765625.691406-1.5 1.382813-2.21875 2.054688-4.410156 4.136718-7.324219 6.867187-13.742187 6.867187-6.390625 0-9.257813-2.71875-13.601563-6.839843-5.148437-4.878907-11.550781-10.957032-23.925781-10.957032s-18.78125 6.078125-23.929688 10.957032c-4.34375 4.121093-7.210937 6.839843-13.601562 6.839843s-9.257812-2.71875-13.601562-6.839843c-5.148438-4.878907-11.554688-10.957032-23.925782-10.957032-12.375 0-18.78125 6.078125-23.929687 10.957032-4.34375 4.121093-7.210938 6.839843-13.601563 6.839843-6.386718 0-9.257812-2.71875-13.597656-6.835937-5.144531-4.882813-11.550781-10.957032-23.925781-10.957032-12.371094 0-18.777344 6.074219-23.925781 10.957032-4.339844 4.117187-7.207032 6.835937-13.597657 6.835937-6.386719 0-9.253906-2.71875-13.59375-6.835937-5.148437-4.882813-11.550781-10.957032-23.925781-10.957032-12.371094 0-18.777344 6.074219-23.925781 10.957032-4.339844 4.117187-7.210938 6.839844-13.597657 6.839844-6.410156 0-9.316406-2.734376-13.71875-6.867188-.714843-.667969-1.445312-1.355469-2.207031-2.042969v-1.8125c0-8.71875 7.09375-15.816406 15.816407-15.816406zm300.394531 208.519531v.003906c-2.097657 13.425782-13.488281 23.171876-27.078125 23.171876h-11.25l15.847656-169.214844c.386719-4.125-2.648438-7.785156-6.773438-8.171875-4.128906-.386719-7.78125 2.648437-8.167968 6.773437l-15.976563 170.613282h-37.105469l7.773438-169.570313c.191406-4.140625-3.011719-7.648437-7.152344-7.839844-4.128906-.183593-7.648437 3.011719-7.835937 7.152344l-7.808594 170.257813h-37.121094l-.035156-169.917969c0-4.140625-3.359375-7.5-7.503906-7.5s-7.503907 3.359375-7.503907 7.503906l.039063 169.914063h-37.121094l-7.804687-170.257813c-.191406-4.140625-3.695313-7.34375-7.839844-7.152344-4.136719.191407-7.339844 3.699219-7.152344 7.839844l7.773438 169.570313h-37.101563l-16.332031-174.398438c-.386719-4.128906-4.054688-7.164062-8.171875-6.773438-4.125.386719-7.15625 4.042969-6.769531 8.171876l16.203125 173h-11.25c-13.589844 0-24.980469-9.746094-27.078125-23.175782l-28.46875-181.824218c1.476562 1.085937 2.894531 2.417968 4.488281 3.914062 5.1875 4.871094 11.640625 10.933594 23.992187 10.933594 12.371094 0 18.777344-6.078125 23.925782-10.957032 4.34375-4.121093 7.210937-6.839843 13.597656-6.839843s9.257812 2.71875 13.597656 6.839843c5.144532 4.878907 11.550782 10.957032 23.921875 10.957032 12.375 0 18.777344-6.078125 23.925781-10.957032 4.34375-4.121093 7.210938-6.839843 13.597657-6.839843 6.390625 0 9.257812 2.71875 13.597656 6.839843 5.148437 4.878907 11.554687 10.957032 23.925781 10.957032 12.375 0 18.78125-6.074219 23.929688-10.957032 4.34375-4.117187 7.210937-6.839843 13.601562-6.839843 6.386719 0 9.257813 2.722656 13.601563 6.839843 5.144531 4.878907 11.550781 10.957032 23.925781 10.957032s18.78125-6.074219 23.929688-10.957032c4.339843-4.117187 7.210937-6.839843 13.601562-6.839843s9.257812 2.722656 13.601562 6.839843c5.148438 4.878907 11.550782 10.957032 23.925782 10.957032 12.351562 0 18.8125-6.0625 24.007812-10.929688 1.601563-1.5 3.027344-2.839844 4.511719-3.925781zm0 0"/></svg>